<svg xmlns="http://www.w3.org/2000/svg" width="176.047" height="72.797" viewBox="0 0 176.047 72.797"><path d="M77.472,37.388a6.34,6.34,0,0,1-1.528,8.67,6.084,6.084,0,0,1-8.4-1.6c-2.386-3.31-2.538-7.2-2.5-11.113.013-1.406.8-1.666,1.938-1.5A16.343,16.343,0,0,1,77.472,37.388Z" transform="translate(-43.375 -23.143)" fill="#fff" fill-rule="evenodd"/><path d="M42.447,75.748a6.651,6.651,0,0,0,8.365-3.913,6.38,6.38,0,0,0-3.919-8.073c-4.006-1.514-7.99-.607-11.941.5-1.425.4-1.466,1.264-.994,2.375A17.124,17.124,0,0,0,42.447,75.748Z" transform="translate(-27.442 -38.986)" fill="#86bcbe" fill-rule="evenodd"/><path d="M45.224,142.177a8.047,8.047,0,0,0,1.842-11.02,7.716,7.716,0,0,0-10.729-1.64c-4.258,2.95-6.086,7.545-7.7,12.236-.585,1.689.254,2.332,1.684,2.619A20.742,20.742,0,0,0,45.224,142.177Z" transform="translate(-24.776 -72.071)" fill="#d97d54" fill-rule="evenodd"/><path d="M33.88,108.02a7.286,7.286,0,0,0,7.15-7.15,6.987,6.987,0,0,0-7.043-6.845c-4.686-.065-8.449,2.357-12.1,4.963-1.314.938-1.037,1.851-.134,2.815A18.753,18.753,0,0,0,33.88,108.02Z" transform="translate(-20.985 -54.774)" fill="#6d8ca0" fill-rule="evenodd"/><path d="M111.188,26.042a6.651,6.651,0,0,1-6.585,6.479,6.383,6.383,0,0,1-6.2-6.484c-.022-4.285,2.219-7.7,4.623-11.024.869-1.2,1.7-.934,2.576-.1A17.136,17.136,0,0,1,111.188,26.042Z" transform="translate(-60.335 -14.2)" fill="#d97d54" fill-rule="evenodd"/><path d="M171.475,56.024a8.047,8.047,0,0,1-10.974-2.11,7.716,7.716,0,0,1,2.2-10.629c4.251-2.965,9.2-3.079,14.154-2.96,1.787.042,2.1,1.051,1.871,2.49A20.759,20.759,0,0,1,171.475,56.024Z" transform="translate(-91.262 -27.464)" fill="#86bcbe" fill-rule="evenodd"/><path d="M143.274,30.606a7.289,7.289,0,0,1-9.194,4.211,6.988,6.988,0,0,1-3.962-8.986c1.571-4.415,5.151-7.1,8.867-9.616,1.342-.906,2.1-.329,2.687.854A18.781,18.781,0,0,1,143.274,30.606Z" transform="translate(-76.233 -14.998)" fill="#6d8ca0" fill-rule="evenodd"/><path d="M90.454,123.557V96.424h9.363a17.761,17.761,0,0,1,4.55.506,8.692,8.692,0,0,1,3.1,1.445,5.607,5.607,0,0,1,1.773,2.27,7.65,7.65,0,0,1,.563,3,5.936,5.936,0,0,1-.281,1.83,5.288,5.288,0,0,1-.873,1.632,6.53,6.53,0,0,1-1.5,1.379,9.069,9.069,0,0,1-2.167,1.051q5.591,1.257,5.592,6.042a7.7,7.7,0,0,1-.656,3.19A7.036,7.036,0,0,1,108,121.295a9.149,9.149,0,0,1-3.1,1.661,13.529,13.529,0,0,1-4.2.6H90.454ZM95.5,108.17h4.034a6.759,6.759,0,0,0,3.9-.938,3.394,3.394,0,0,0,1.332-2.983,3.536,3.536,0,0,0-1.2-3.021,6.276,6.276,0,0,0-3.753-.9H95.5Zm0,3.49v7.956h5.123a7.079,7.079,0,0,0,2.355-.338,4.09,4.09,0,0,0,1.52-.9,3.3,3.3,0,0,0,.826-1.313,4.962,4.962,0,0,0,.253-1.6,4.232,4.232,0,0,0-.282-1.585,2.966,2.966,0,0,0-.882-1.2,4.13,4.13,0,0,0-1.539-.76,8.541,8.541,0,0,0-2.271-.263H95.5Z" transform="translate(-56.296 -57.738)" fill="#86bcbe"/><path d="M155.456,96.423v4.016H143.429v7.524H152.9v3.884h-9.476v7.674h12.028v4.034H138.344V96.423h17.112Z" transform="translate(-80.638 -57.737)" fill="#86bcbe"/><path d="M188.181,97.606h1.595a.656.656,0,0,1,.694.506l6.7,21.822q.112.375.2.807t.178.9q.094-.469.187-.9a6.743,6.743,0,0,1,.226-.807l7.5-21.822a.814.814,0,0,1,.263-.357.7.7,0,0,1,.45-.15h.525a.651.651,0,0,1,.431.141.937.937,0,0,1,.263.366l7.505,21.822q.131.375.235.788c.069.275.134.569.2.882q.094-.451.169-.872a6.974,6.974,0,0,1,.188-.8l6.7-21.822a.671.671,0,0,1,.253-.357.741.741,0,0,1,.46-.15h1.464l-8.349,26.55h-1.727l-7.843-23.041a9.637,9.637,0,0,1-.262-.957,9.593,9.593,0,0,1-.263.957l-7.862,23.041H196.55Z" transform="translate(-105.969 -58.338)" fill="#fff"/><path d="M284.953,97.607V99.2H270.974v10.733h11.633v1.557H270.974v11.071h13.979v1.595H269.042V97.607Z" transform="translate(-147.07 -58.339)" fill="#fff"/><path d="M314.228,122.525h12.59v1.632h-14.5V97.607h1.914v24.918Z" transform="translate(-169.065 -58.339)" fill="#fff"/><path d="M351.434,122.525h12.59v1.632h-14.5V97.607h1.914v24.918Z" transform="translate(-187.976 -58.339)" fill="#fff"/></svg>