<svg xmlns="http://www.w3.org/2000/svg" xmlns:xlink="http://www.w3.org/1999/xlink" width="90" height="91.658" viewBox="0 0 90 91.658">
  <defs>
    <filter id="Path_573" x="2.926" y="7.153" width="84.505" height="84.505" filterUnits="userSpaceOnUse">
      <feOffset dy="5" input="SourceAlpha"/>
      <feGaussianBlur stdDeviation="2.5" result="blur"/>
      <feFlood flood-opacity="0.161"/>
      <feComposite operator="in" in2="blur"/>
      <feComposite in="SourceGraphic"/>
    </filter>
    <filter id="Path_574" x="5.822" y="24.53" width="78.713" height="49.752" filterUnits="userSpaceOnUse">
      <feOffset dy="5" input="SourceAlpha"/>
      <feGaussianBlur stdDeviation="2.5" result="blur-2"/>
      <feFlood flood-opacity="0.161"/>
      <feComposite operator="in" in2="blur-2"/>
      <feComposite in="SourceGraphic"/>
    </filter>
  </defs>
  <g id="Group_97" data-name="Group 97" transform="translate(-981.5 -717.5)">
    <g id="password" transform="translate(991.926 727.153)">
      <g transform="matrix(1, 0, 0, 1, -10.43, -9.65)" filter="url(#Path_573)">
        <path id="Path_573-2" data-name="Path 573" d="M0,0H69.5V69.5H0Z" transform="translate(10.43 9.65)" fill="none"/>
      </g>
      <g transform="matrix(1, 0, 0, 1, -10.43, -9.65)" filter="url(#Path_574)">
        <path id="Path_574-2" data-name="Path 574" d="M34.739,17.584a17.376,17.376,0,1,0,0,11.584h12.6V40.752H58.921V29.168h5.792V17.584ZM18.376,29.168a5.792,5.792,0,1,1,5.792-5.792A5.809,5.809,0,0,1,18.376,29.168Z" transform="translate(12.32 21.03)" fill="#87bcbf"/>
      </g>
    </g>
    <path id="Path_576" data-name="Path 576" d="M0,0H90V90H0Z" transform="translate(981.5 717.5)" fill="none"/>
  </g>
</svg>
