<svg xmlns="http://www.w3.org/2000/svg" xmlns:xlink="http://www.w3.org/1999/xlink" width="655.881" height="276" viewBox="0 0 655.881 276"><defs><linearGradient id="a" x1="0.5" x2="0.5" y2="1" gradientUnits="objectBoundingBox"><stop offset="0" stop-color="#87bcbf"/><stop offset="1" stop-color="#fff"/></linearGradient></defs><g transform="translate(-344.119 -2627)"><g transform="translate(402 2494.284)"><g transform="translate(-57.881 132.757)"><path d="M2457.457,1054.96c48.643-1.23,56.42,132.257,90.489,132.257s34.485-55.866,65.825-55.866c25.562,0,25.338,34,52.426,34s21.124-43.677,45.728-43.677,14.855,133.041,14.855,133.041H2411.046S2408.815,1056.19,2457.457,1054.96Z" transform="translate(-2383.549 -1009.829)" fill="#d97d54" opacity="0.91"/><path d="M2419.116,1066.229c46.276-17.494,56.159-3.211,81.588,11.127s32.17-14.955,51.4-14.076,13.656,73.023,40.972,77.374,25.971-6.155,52.387,7.2,17.7-61.49,64.425-70.495S2748.614,1251,2748.614,1251l-356.995,4.347Z" transform="translate(-2391.619 -985.098)" opacity="0.5" fill="url(#a)"/><text transform="translate(56.881 5.959)" fill="#fff" font-size="6" font-family="Europa-Light, Europa" font-weight="300" letter-spacing="0.07em"><tspan x="0" y="0">400</tspan><tspan x="0" y="30">350</tspan><tspan x="0" y="60">300</tspan><tspan x="0" y="90">250</tspan><tspan x="0" y="120">200</tspan><tspan x="0" y="150">150</tspan><tspan x="0" y="180">100</tspan><tspan x="0" y="210">50</tspan><tspan x="0" y="240">0</tspan></text><text transform="translate(90.881 250.959)" fill="#fff" font-size="6" font-family="Europa-Light, Europa" font-weight="300" letter-spacing="0.07em"><tspan x="0" y="0" xml:space="preserve">30           60           90           120           150           180           210</tspan></text></g></g><g transform="translate(667 2490)"><g transform="translate(0 -49)"><path d="M120,120V0A120.109,120.109,0,0,0,3.8,89.8Z" transform="translate(68 214)" fill="#87bcbf" opacity="0.63"/><path d="M141.9,238a119.99,119.99,0,0,0,64.3-34.5L120,120Z" transform="translate(68 214)" fill="#87bcbf" opacity="0.93"/><path d="M237.3,94.5a120.164,120.164,0,0,0-34.8-61.7L120,120Z" transform="translate(68 214)" fill="#87bcbf" opacity="0.83"/><path d="M120,.2h0v120L202.5,33A119.933,119.933,0,0,0,120,.2Z" transform="translate(68 214)" fill="#6e8ca0" opacity="0.73"/><path d="M206.2,203.5a120.4,120.4,0,0,0,31.1-109L120,120Z" transform="translate(68 214)" fill="#f1f9ff"/><path d="M120,120,3.8,89.8A120.213,120.213,0,0,0,120,240a121.353,121.353,0,0,0,21.9-2Z" transform="translate(68 214)" fill="#d97d54"/></g><text transform="translate(94 179)" fill="#fff" font-size="10" font-family="Europa-Light, Europa" font-weight="300" letter-spacing="0.07em"><tspan x="-9.64" y="0">23%</tspan></text><text transform="translate(247 157)" fill="#fff" font-size="10" font-family="Europa-Light, Europa" font-weight="300" letter-spacing="0.07em"><tspan x="-9.02" y="0">18%</tspan></text><text transform="translate(317 216)" fill="#fff" font-size="10" font-family="Europa-Light, Europa" font-weight="300" letter-spacing="0.07em"><tspan x="-6.65" y="0">9%</tspan></text><text transform="translate(323 327)" fill="#fff" font-size="10" font-family="Europa-Light, Europa" font-weight="300" letter-spacing="0.07em"><tspan x="-9.075" y="0">15%</tspan></text><text transform="translate(267 410)" fill="#fff" font-size="10" font-family="Europa-Light, Europa" font-weight="300" letter-spacing="0.07em"><tspan x="-6.785" y="0">5%</tspan></text><text transform="translate(83 404)" fill="#fff" font-size="10" font-family="Europa-Light, Europa" font-weight="300" letter-spacing="0.07em"><tspan x="-9.94" y="0">30%</tspan></text></g></g></svg>