<svg xmlns="http://www.w3.org/2000/svg" width="39.993" height="40" viewBox="0 0 39.993 40"><path d="M26.479,19.119c-.62,2.48-4.48,1.22-5.68.88l1.1-4.36c1.24.36,5.22.88,4.58,3.48m-6.22,3.12-1.2,4.82c1.48.38,6.06,1.84,6.74-.88.72-2.84-4.06-3.58-5.54-3.94m21.139,4.6A19.994,19.994,0,1,1,26.839,2.6,19.985,19.985,0,0,1,41.4,26.839M26.419,14.1l.9-3.6-2.2-.5-.88,3.46c-.58-.14-1.16-.28-1.76-.4l.88-3.54L21.179,9l-.9,3.58c-.48-.12-.96-.22-1.4-.34h0l-3.02-.76-.6,2.34s1.64.38,1.6.4a1.133,1.133,0,0,1,1.02,1.28l-2.46,9.86a.856.856,0,0,1-1,.54c.02.02-1.6-.4-1.6-.4L11.74,28l2.84.72c.54.14,1.06.28,1.58.4l-.92,3.64,2.2.56.9-3.62c.6.16,1.18.3,1.74.46l-.9,3.58,2.2.56.92-3.64c3.7.7,6.54.42,7.7-2.96,1-2.7,0-4.3-2-5.32a3.582,3.582,0,0,0,2.82-3.24C31.219,16.479,29.179,15.059,26.419,14.1Z" transform="translate(-2 -2)" fill="#fff"/></svg>